<svg xmlns="http://www.w3.org/2000/svg" viewBox="0 0 512 512" role="img" aria-label="Friday">
  <defs>
    <linearGradient id="tile" x1="0" y1="0" x2="0" y2="1">
      <stop offset="0" stop-color="#1E2029"/>
      <stop offset="1" stop-color="#1A3A5C"/>
    </linearGradient>
    <radialGradient id="bloom" cx="0.30" cy="0.92" r="0.55">
      <stop offset="0" stop-color="#B3273B" stop-opacity="0.30"/>
      <stop offset="1" stop-color="#B3273B" stop-opacity="0"/>
    </radialGradient>
    <linearGradient id="spec" x1="0" y1="0" x2="0" y2="1">
      <stop offset="0" stop-color="#FFFFFF" stop-opacity="0.16"/>
      <stop offset="0.46" stop-color="#FFFFFF" stop-opacity="0"/>
    </linearGradient>
    <filter id="halo" x="-60%" y="-60%" width="220%" height="220%">
      <feGaussianBlur stdDeviation="11"/>
    </filter>
    <clipPath id="clip"><rect width="512" height="512" rx="115"/></clipPath>
  </defs>
  <g clip-path="url(#clip)">
    <rect width="512" height="512" fill="url(#tile)"/>
    <rect width="512" height="512" fill="url(#bloom)"/>
    <rect width="512" height="512" fill="url(#spec)"/>
    <g stroke="#F0E8D8" stroke-opacity="0.82" stroke-width="8.5" stroke-linecap="round">
      <line x1="182" y1="131" x2="182" y2="259"/>
      <line x1="182" y1="259" x2="182" y2="389"/>
      <line x1="182" y1="131" x2="358" y2="131"/>
      <line x1="182" y1="259" x2="320" y2="259"/>
      <line x1="182" y1="389" x2="320" y2="259"/>
    </g>
    <g fill="#B3273B">
      <g filter="url(#halo)" opacity="0.55">
        <circle cx="182" cy="131" r="30"/><circle cx="358" cy="131" r="30"/>
        <circle cx="182" cy="259" r="32"/><circle cx="320" cy="259" r="26"/>
        <circle cx="182" cy="389" r="30"/>
      </g>
      <circle cx="182" cy="131" r="22.5"/><circle cx="358" cy="131" r="22.5"/>
      <circle cx="182" cy="259" r="24.5"/><circle cx="320" cy="259" r="19"/>
      <circle cx="182" cy="389" r="22.5"/>
    </g>
    <g fill="#F4EFE6">
      <circle cx="182" cy="131" r="9.5"/><circle cx="358" cy="131" r="9.5"/>
      <circle cx="182" cy="259" r="10.3"/><circle cx="320" cy="259" r="8"/>
      <circle cx="182" cy="389" r="9.5"/>
    </g>
    <rect x="3" y="3" width="506" height="506" rx="112" fill="none" stroke="#FFFFFF" stroke-opacity="0.18" stroke-width="3"/>
  </g>
</svg>
